<?xml version="1.0" standalone="no"?>
<!DOCTYPE svg PUBLIC "-//W3C//DTD SVG 20010904//EN"
 "http://www.w3.org/TR/2001/REC-SVG-20010904/DTD/svg10.dtd">
<svg version="1.0" xmlns="http://www.w3.org/2000/svg"
 width="512.000000pt" height="512.000000pt" viewBox="0 0 512.000000 512.000000"
 preserveAspectRatio="xMidYMid meet">
<metadata>
Created by potrace 1.14, written by Peter Selinger 2001-2017
</metadata>
<g transform="translate(0.000000,512.000000) scale(0.100000,-0.100000)"
fill="#000000" stroke="none">
<path d="M2069 5068 c-19 -16 -79 -52 -134 -80 -112 -57 -103 -56 -416 -50
-140 2 -147 3 -173 27 -17 15 -39 25 -59 25 -18 1 -178 4 -357 8 -325 7 -496
7 -730 1 l-125 -4 -17 -50 c-22 -65 -22 -167 0 -236 14 -44 17 -91 17 -264 0
-218 -12 -326 -57 -515 -31 -129 -16 -339 37 -504 36 -115 58 -264 51 -344
-22 -246 -21 -258 39 -334 32 -40 35 -48 35 -116 0 -102 -30 -153 -102 -172
l-38 -11 6 -187 c7 -242 19 -354 39 -386 10 -14 32 -35 51 -46 18 -12 36 -31
41 -43 15 -46 -1 -304 -28 -443 -6 -33 -19 -60 -35 -75 -14 -13 -35 -42 -46
-64 -20 -38 -20 -50 -13 -285 11 -347 11 -442 1 -551 l-9 -97 57 -21 c109 -40
177 -46 398 -33 112 7 237 10 278 6 41 -3 95 -1 119 4 32 8 55 7 88 -3 35 -11
59 -11 104 -3 46 8 74 7 127 -5 51 -11 91 -13 167 -7 297 24 289 23 322 6 21
-10 58 -16 105 -16 40 -1 91 -7 113 -15 37 -13 41 -13 60 5 32 30 62 26 79
-12 21 -48 103 -147 132 -160 24 -11 29 -8 78 45 61 66 71 68 185 36 48 -14
91 -19 120 -16 39 4 47 2 68 -24 39 -46 56 -46 162 5 136 65 164 68 671 63 19
0 91 4 159 8 106 7 133 12 179 36 l54 27 52 -23 c46 -21 75 -25 301 -35 138
-6 256 -13 263 -16 8 -2 28 2 45 10 18 8 43 16 57 18 17 2 26 10 28 26 3 18
-1 22 -22 22 -21 0 -26 5 -26 24 0 22 4 23 83 29 115 9 265 -18 373 -67 31
-14 62 -26 69 -26 17 0 26 285 16 525 -4 105 -5 424 -2 710 3 286 4 588 1 670
l-5 150 -78 3 c-87 3 -95 14 -35 47 36 19 37 20 44 105 5 47 8 164 8 260 0
201 -8 234 -79 335 -55 78 -78 123 -69 138 4 7 27 37 51 68 l43 56 -15 42 c-8
24 -12 47 -9 52 3 5 32 23 64 39 51 26 60 35 69 67 29 118 19 965 -14 1111
-15 65 -15 73 3 144 13 46 18 93 15 124 -8 86 -10 91 -46 98 -19 3 -52 22 -75
42 -50 43 -107 53 -285 54 -91 0 -123 4 -142 16 -35 23 -66 11 -109 -41 -21
-25 -43 -45 -50 -45 -6 0 -17 20 -24 45 -8 32 -19 48 -35 54 -40 16 -201 31
-420 41 -117 6 -265 13 -329 16 -150 9 -198 -6 -222 -67 -9 -22 -16 -49 -16
-62 0 -12 -4 -28 -8 -35 -15 -23 -194 -42 -237 -26 -9 4 -25 26 -35 49 l-18
42 -93 6 c-51 4 -95 9 -97 12 -3 3 3 20 13 40 11 19 16 38 11 42 -4 4 -182 9
-395 9 l-387 2 -35 -30z m853 -523 c448 -59 779 -264 936 -580 147 -295 131
-604 -48 -903 -64 -108 -143 -206 -352 -438 -247 -275 -308 -354 -368 -479
-54 -110 -72 -172 -94 -316 -8 -53 -21 -110 -29 -126 -31 -59 -22 -58 -364
-58 l-315 0 -20 25 c-19 23 -20 35 -16 155 8 214 61 368 188 555 80 116 163
211 398 452 202 208 281 305 331 405 85 171 82 366 -9 498 -140 204 -417 306
-717 264 -289 -40 -480 -209 -568 -504 -39 -131 -45 -145 -74 -163 -22 -15
-60 -17 -309 -17 l-284 0 -19 24 c-23 29 -25 101 -5 216 48 272 207 528 433
699 197 148 462 253 733 291 132 18 433 18 572 0z m-1876 -321 c21 -14 50 -36
64 -49 14 -12 48 -34 75 -49 28 -15 61 -35 74 -45 l25 -19 -42 -63 c-55 -86
-106 -197 -132 -294 -12 -44 -25 -88 -29 -98 -5 -14 -53 31 -241 225 -130 134
-241 255 -247 270 -12 26 -11 26 40 38 29 7 95 32 147 55 123 55 116 53 176
54 39 1 60 -5 90 -25z m2974 -118 c25 -18 67 -45 94 -61 l49 -28 -7 -108 c-5
-73 -17 -140 -37 -211 -19 -65 -35 -152 -44 -236 -9 -92 -17 -139 -28 -149
-13 -14 -14 -9 -2 48 34 166 28 308 -21 477 -30 103 -94 236 -153 315 l-42 58
73 -37 c40 -20 93 -51 118 -68z m-1943 -583 c71 -44 695 -466 741 -500 l33
-25 -143 -146 c-190 -195 -287 -307 -360 -417 -33 -49 -64 -91 -68 -93 -4 -2
-95 91 -201 205 -107 114 -295 310 -419 436 l-224 227 182 0 c195 0 229 6 271
51 33 35 56 84 79 169 24 86 39 130 47 130 2 0 31 -16 62 -37z m1569 -1056
c60 -41 132 -86 161 -102 28 -15 82 -54 119 -88 67 -59 131 -96 167 -97 10 0
47 -21 82 -47 202 -151 303 -223 328 -234 19 -9 27 -20 27 -38 0 -48 -20 -145
-49 -246 -16 -55 -46 -158 -66 -230 -35 -127 -121 -332 -171 -408 -41 -63 -71
-70 -242 -57 -186 13 -366 37 -407 54 -17 7 -80 67 -141 132 -60 65 -137 146
-170 179 -34 33 -109 112 -167 175 -98 108 -104 117 -90 135 40 54 62 116 78
225 35 240 96 355 330 619 49 55 92 101 96 101 4 0 56 -33 115 -73z m-2346
-722 c85 -86 271 -262 412 -391 142 -129 262 -244 268 -254 9 -17 3 -21 -62
-41 -40 -12 -93 -32 -118 -45 -43 -22 -68 -29 -190 -53 -30 -6 -80 -23 -110
-37 -92 -44 -145 -54 -290 -54 -158 0 -153 -2 -278 113 -46 43 -88 77 -93 77
-5 0 -28 17 -52 39 -23 21 -56 45 -73 54 -50 26 -59 43 -57 113 1 49 10 82 37
142 20 44 47 108 60 143 13 35 61 150 106 254 45 105 88 205 96 224 l14 33 87
-80 c49 -44 158 -151 243 -237z m1605 -521 c40 -16 45 -51 45 -334 0 -175 -4
-278 -11 -292 -23 -43 -61 -48 -359 -48 -308 0 -341 5 -360 55 -6 15 -10 140
-10 291 0 214 3 270 15 294 8 15 20 30 27 33 19 8 633 8 653 1z"/>
</g>
</svg>
